<mxfile host="app.diagrams.net" modified="2021-04-18T23:40:47.077Z" agent="5.0 (Windows NT 10.0; Win64; x64) AppleWebKit/537.36 (KHTML, like Gecko) Chrome/90.0.4430.72 Safari/537.36" etag="X-YHtSYSyTueIgCR12VC" version="14.6.1" type="github">
  <diagram id="eBab_OE84lTXy0sHVWzC" name="Page-1">
    <mxGraphModel dx="2858" dy="1089" grid="1" gridSize="10" guides="1" tooltips="1" connect="1" arrows="1" fold="1" page="1" pageScale="1" pageWidth="827" pageHeight="1169" math="0" shadow="0">
      <root>
        <mxCell id="0" />
        <mxCell id="1" parent="0" />
        <mxCell id="tjEL6Pp3iGFSAv2E55cC-1" value="Window Title" style="strokeWidth=1;shadow=0;dashed=0;align=center;html=1;shape=mxgraph.mockup.containers.window;align=left;verticalAlign=top;spacingLeft=8;strokeColor2=#008cff;strokeColor3=#c4c4c4;mainText=;fontSize=17;labelBackgroundColor=none;" vertex="1" parent="1">
          <mxGeometry x="-240" y="280" width="990" height="2220" as="geometry" />
        </mxCell>
        <mxCell id="tjEL6Pp3iGFSAv2E55cC-5" value="Navbar" style="html=1;shadow=0;dashed=0;fillColor=#647687;strokeColor=#314354;fontSize=16;align=left;spacing=15;fontColor=#ffffff;" vertex="1" parent="1">
          <mxGeometry x="-240" y="310" width="990" height="60" as="geometry" />
        </mxCell>
        <mxCell id="tjEL6Pp3iGFSAv2E55cC-6" value="Home" style="fillColor=none;strokeColor=none;fontSize=14;fontColor=#ffffff;align=center;" vertex="1" parent="tjEL6Pp3iGFSAv2E55cC-5">
          <mxGeometry width="70" height="40" relative="1" as="geometry">
            <mxPoint x="70" y="10" as="offset" />
          </mxGeometry>
        </mxCell>
        <mxCell id="tjEL6Pp3iGFSAv2E55cC-7" value="Mujeres" style="fillColor=none;strokeColor=none;fontSize=14;align=center;fontColor=#CCCCCC;" vertex="1" parent="tjEL6Pp3iGFSAv2E55cC-5">
          <mxGeometry width="70" height="40" relative="1" as="geometry">
            <mxPoint x="140" y="10" as="offset" />
          </mxGeometry>
        </mxCell>
        <mxCell id="tjEL6Pp3iGFSAv2E55cC-8" value="Hombres" style="fillColor=none;strokeColor=none;fontSize=14;align=center;spacingRight=0;fontColor=#CCCCCC;" vertex="1" parent="tjEL6Pp3iGFSAv2E55cC-5">
          <mxGeometry width="80" height="40" relative="1" as="geometry">
            <mxPoint x="210" y="10" as="offset" />
          </mxGeometry>
        </mxCell>
        <mxCell id="tjEL6Pp3iGFSAv2E55cC-9" value="Niños" style="fillColor=none;strokeColor=none;fontSize=14;align=center;fontColor=#CCCCCC;" vertex="1" parent="tjEL6Pp3iGFSAv2E55cC-5">
          <mxGeometry width="80" height="40" relative="1" as="geometry">
            <mxPoint x="290" y="10" as="offset" />
          </mxGeometry>
        </mxCell>
        <mxCell id="tjEL6Pp3iGFSAv2E55cC-10" value="Search" style="html=1;shadow=0;dashed=0;shape=mxgraph.bootstrap.rrect;rSize=5;fontSize=14;fontColor=#1CA5B8;strokeColor=#1CA5B8;fillColor=none;" vertex="1" parent="tjEL6Pp3iGFSAv2E55cC-5">
          <mxGeometry x="1" width="70" height="40" relative="1" as="geometry">
            <mxPoint x="-80" y="10" as="offset" />
          </mxGeometry>
        </mxCell>
        <mxCell id="tjEL6Pp3iGFSAv2E55cC-11" value="Search" style="html=1;shadow=0;dashed=0;shape=mxgraph.bootstrap.rrect;rSize=5;fontSize=14;fontColor=#6C767D;strokeColor=#CED4DA;fillColor=#ffffff;align=left;spacing=10;" vertex="1" parent="tjEL6Pp3iGFSAv2E55cC-5">
          <mxGeometry x="1" width="180" height="40" relative="1" as="geometry">
            <mxPoint x="-270" y="10" as="offset" />
          </mxGeometry>
        </mxCell>
        <mxCell id="tjEL6Pp3iGFSAv2E55cC-12" value="&lt;span style=&quot;font-size: 30px&quot;&gt;Mujeres&lt;/span&gt;" style="text;html=1;align=center;verticalAlign=middle;resizable=0;points=[];autosize=1;strokeColor=none;" vertex="1" parent="1">
          <mxGeometry x="-145" y="580" width="120" height="30" as="geometry" />
        </mxCell>
        <mxCell id="tjEL6Pp3iGFSAv2E55cC-33" value="" style="group" vertex="1" connectable="0" parent="1">
          <mxGeometry x="-240" y="2150" width="990" height="350" as="geometry" />
        </mxCell>
        <mxCell id="tjEL6Pp3iGFSAv2E55cC-34" value="" style="whiteSpace=wrap;html=1;fontSize=30;align=left;fillColor=#647687;strokeColor=#314354;fontColor=#ffffff;" vertex="1" parent="tjEL6Pp3iGFSAv2E55cC-33">
          <mxGeometry width="990" height="350" as="geometry" />
        </mxCell>
        <mxCell id="tjEL6Pp3iGFSAv2E55cC-35" value="&lt;font style=&quot;font-size: 30px&quot;&gt;LOGO&lt;/font&gt;" style="text;html=1;align=center;verticalAlign=middle;resizable=0;points=[];autosize=1;strokeColor=none;fontSize=24;fontColor=#FFFFFF;spacingLeft=-7;" vertex="1" parent="tjEL6Pp3iGFSAv2E55cC-33">
          <mxGeometry x="60" y="45" width="100" height="40" as="geometry" />
        </mxCell>
        <mxCell id="tjEL6Pp3iGFSAv2E55cC-36" value="&lt;font style=&quot;font-size: 15px&quot;&gt;Slogan comapny&lt;/font&gt;" style="text;html=1;strokeColor=none;fillColor=none;align=left;verticalAlign=middle;whiteSpace=wrap;rounded=0;labelBackgroundColor=none;fontSize=25;fontColor=#FFFFFF;" vertex="1" parent="tjEL6Pp3iGFSAv2E55cC-33">
          <mxGeometry x="60" y="90" width="120" height="20" as="geometry" />
        </mxCell>
        <mxCell id="tjEL6Pp3iGFSAv2E55cC-37" value="&lt;font style=&quot;font-size: 20px&quot;&gt;Obtener Ayuda&lt;/font&gt;" style="text;html=1;align=center;verticalAlign=middle;resizable=0;points=[];autosize=1;strokeColor=none;fontSize=35;fontColor=#FFFFFF;rotation=0;" vertex="1" parent="tjEL6Pp3iGFSAv2E55cC-33">
          <mxGeometry x="680" y="35" width="150" height="50" as="geometry" />
        </mxCell>
        <mxCell id="tjEL6Pp3iGFSAv2E55cC-38" value="&lt;font style=&quot;font-size: 18px;&quot;&gt;Pedidos&lt;br style=&quot;font-size: 18px;&quot;&gt;Cambios y Devoluciones&lt;br style=&quot;font-size: 18px;&quot;&gt;Formas de pago&lt;br style=&quot;font-size: 18px;&quot;&gt;&lt;/font&gt;&lt;div style=&quot;font-size: 18px;&quot;&gt;&lt;font style=&quot;font-size: 18px;&quot;&gt;Comunícate con nosotros&lt;/font&gt;&lt;/div&gt;" style="text;html=1;align=left;verticalAlign=middle;resizable=0;points=[];autosize=1;strokeColor=none;fontSize=18;line-height=13;imageAspect=1;container=0;fontColor=#B3B3B3;" vertex="1" parent="tjEL6Pp3iGFSAv2E55cC-33">
          <mxGeometry x="690" y="90" width="220" height="90" as="geometry" />
        </mxCell>
        <mxCell id="tjEL6Pp3iGFSAv2E55cC-39" value="&lt;font style=&quot;font-size: 20px&quot;&gt;Sobre Nosotros&lt;/font&gt;" style="text;html=1;align=center;verticalAlign=middle;resizable=0;points=[];autosize=1;strokeColor=none;fontSize=35;fontColor=#FFFFFF;rotation=0;" vertex="1" parent="tjEL6Pp3iGFSAv2E55cC-33">
          <mxGeometry x="390" y="35" width="150" height="50" as="geometry" />
        </mxCell>
        <mxCell id="tjEL6Pp3iGFSAv2E55cC-40" value="&lt;font style=&quot;font-size: 18px;&quot;&gt;Nuestra Visión&amp;nbsp;&lt;br style=&quot;font-size: 18px;&quot;&gt;Noticias&lt;br style=&quot;font-size: 18px;&quot;&gt;Empleo&lt;br style=&quot;font-size: 18px;&quot;&gt;Comunícate con Nosotros&lt;/font&gt;" style="text;html=1;align=left;verticalAlign=middle;resizable=0;points=[];autosize=1;strokeColor=none;fontSize=18;fontColor=#B3B3B3;" vertex="1" parent="tjEL6Pp3iGFSAv2E55cC-33">
          <mxGeometry x="395" y="90" width="220" height="90" as="geometry" />
        </mxCell>
        <mxCell id="tjEL6Pp3iGFSAv2E55cC-41" value="" style="endArrow=none;html=1;fontSize=39;fontColor=#B3B3B3;strokeColor=#CCCCCC;" edge="1" parent="tjEL6Pp3iGFSAv2E55cC-33">
          <mxGeometry y="-20" width="50" height="50" as="geometry">
            <mxPoint x="55" y="230" as="sourcePoint" />
            <mxPoint x="935" y="230" as="targetPoint" />
          </mxGeometry>
        </mxCell>
        <mxCell id="tjEL6Pp3iGFSAv2E55cC-42" value="&lt;font style=&quot;font-size: 15px&quot;&gt;© Copyright all rights reserved&lt;/font&gt;" style="text;html=1;align=center;verticalAlign=middle;resizable=0;points=[];autosize=1;strokeColor=none;fontSize=39;fontColor=#B3B3B3;" vertex="1" parent="tjEL6Pp3iGFSAv2E55cC-33">
          <mxGeometry x="680" y="238" width="220" height="60" as="geometry" />
        </mxCell>
        <mxCell id="tjEL6Pp3iGFSAv2E55cC-43" value="" style="group" vertex="1" connectable="0" parent="tjEL6Pp3iGFSAv2E55cC-33">
          <mxGeometry x="80" y="260" width="137.5" height="38" as="geometry" />
        </mxCell>
        <mxCell id="tjEL6Pp3iGFSAv2E55cC-44" value="" style="shape=image;html=1;verticalAlign=top;verticalLabelPosition=bottom;labelBackgroundColor=#ffffff;imageAspect=0;aspect=fixed;image=https://cdn1.iconfinder.com/data/icons/social-media-outline-6/128/SocialMedia_Twitter-Outline-128.png;fontSize=39;fontColor=#B3B3B3;strokeColor=#000000;fillColor=none;gradientColor=#B3B3B3;align=left;" vertex="1" parent="tjEL6Pp3iGFSAv2E55cC-43">
          <mxGeometry width="37.999291388505576" height="37.999291388505576" as="geometry" />
        </mxCell>
        <mxCell id="tjEL6Pp3iGFSAv2E55cC-45" value="" style="shape=image;html=1;verticalAlign=top;verticalLabelPosition=bottom;labelBackgroundColor=#ffffff;imageAspect=0;aspect=fixed;image=https://cdn1.iconfinder.com/data/icons/social-media-outline-6/128/SocialMedia_Facebook-Outline-128.png;fontSize=39;fontColor=#B3B3B3;strokeColor=#000000;fillColor=none;gradientColor=#B3B3B3;align=left;" vertex="1" parent="tjEL6Pp3iGFSAv2E55cC-43">
          <mxGeometry x="49.37499999999999" width="37.999291388505576" height="37.999291388505576" as="geometry" />
        </mxCell>
        <mxCell id="tjEL6Pp3iGFSAv2E55cC-46" value="" style="shape=image;html=1;verticalAlign=top;verticalLabelPosition=bottom;labelBackgroundColor=#ffffff;imageAspect=0;aspect=fixed;image=https://cdn1.iconfinder.com/data/icons/social-media-outline-6/128/SocialMedia_Instagram-Outline-128.png;fontSize=39;fontColor=#B3B3B3;strokeColor=#000000;fillColor=none;gradientColor=#B3B3B3;align=left;" vertex="1" parent="tjEL6Pp3iGFSAv2E55cC-43">
          <mxGeometry x="97.49999999999999" width="37.999291388505576" height="37.999291388505576" as="geometry" />
        </mxCell>
        <mxCell id="tjEL6Pp3iGFSAv2E55cC-74" value="&lt;b&gt;&lt;font style=&quot;font-size: 18px&quot;&gt;Nombre Producto&lt;br&gt;&lt;br&gt;&amp;nbsp;$$$$$$$&lt;/font&gt;&lt;/b&gt;" style="html=1;shadow=0;dashed=0;shape=mxgraph.bootstrap.rrect;rSize=5;strokeColor=#DFDFDF;html=1;whiteSpace=wrap;fillColor=#ffffff;fontColor=#000000;verticalAlign=bottom;align=left;spacing=20;fontSize=14;" vertex="1" parent="1">
          <mxGeometry x="-165" y="720" width="250" height="290" as="geometry" />
        </mxCell>
        <mxCell id="tjEL6Pp3iGFSAv2E55cC-75" value="Image cap" style="html=1;shadow=0;dashed=0;shape=mxgraph.bootstrap.topButton;rSize=5;perimeter=none;whiteSpace=wrap;fillColor=#868E96;strokeColor=#DFDFDF;fontColor=#DEE2E6;resizeWidth=1;fontSize=18;" vertex="1" parent="tjEL6Pp3iGFSAv2E55cC-74">
          <mxGeometry width="250" height="180" relative="1" as="geometry" />
        </mxCell>
        <mxCell id="tjEL6Pp3iGFSAv2E55cC-76" value="&lt;b&gt;&lt;font style=&quot;font-size: 18px&quot;&gt;Nombre Producto&lt;br&gt;&lt;br&gt;&amp;nbsp;$$$$$$$&lt;/font&gt;&lt;/b&gt;" style="html=1;shadow=0;dashed=0;shape=mxgraph.bootstrap.rrect;rSize=5;strokeColor=#DFDFDF;html=1;whiteSpace=wrap;fillColor=#ffffff;fontColor=#000000;verticalAlign=bottom;align=left;spacing=20;fontSize=14;" vertex="1" parent="1">
          <mxGeometry x="140" y="720" width="250" height="290" as="geometry" />
        </mxCell>
        <mxCell id="tjEL6Pp3iGFSAv2E55cC-77" value="Image cap" style="html=1;shadow=0;dashed=0;shape=mxgraph.bootstrap.topButton;rSize=5;perimeter=none;whiteSpace=wrap;fillColor=#868E96;strokeColor=#DFDFDF;fontColor=#DEE2E6;resizeWidth=1;fontSize=18;" vertex="1" parent="tjEL6Pp3iGFSAv2E55cC-76">
          <mxGeometry width="250" height="180" relative="1" as="geometry" />
        </mxCell>
        <mxCell id="tjEL6Pp3iGFSAv2E55cC-78" value="&lt;b&gt;&lt;font style=&quot;font-size: 18px&quot;&gt;Nombre Producto&lt;br&gt;&lt;br&gt;&amp;nbsp;$$$$$$$&lt;/font&gt;&lt;/b&gt;" style="html=1;shadow=0;dashed=0;shape=mxgraph.bootstrap.rrect;rSize=5;strokeColor=#DFDFDF;html=1;whiteSpace=wrap;fillColor=#ffffff;fontColor=#000000;verticalAlign=bottom;align=left;spacing=20;fontSize=14;" vertex="1" parent="1">
          <mxGeometry x="450" y="720" width="250" height="290" as="geometry" />
        </mxCell>
        <mxCell id="tjEL6Pp3iGFSAv2E55cC-79" value="Image cap" style="html=1;shadow=0;dashed=0;shape=mxgraph.bootstrap.topButton;rSize=5;perimeter=none;whiteSpace=wrap;fillColor=#868E96;strokeColor=#DFDFDF;fontColor=#DEE2E6;resizeWidth=1;fontSize=18;" vertex="1" parent="tjEL6Pp3iGFSAv2E55cC-78">
          <mxGeometry width="250" height="180" relative="1" as="geometry" />
        </mxCell>
        <mxCell id="tjEL6Pp3iGFSAv2E55cC-80" value="&lt;b&gt;&lt;font style=&quot;font-size: 18px&quot;&gt;Nombre Producto&lt;br&gt;&lt;br&gt;&amp;nbsp;$$$$$$$&lt;/font&gt;&lt;/b&gt;" style="html=1;shadow=0;dashed=0;shape=mxgraph.bootstrap.rrect;rSize=5;strokeColor=#DFDFDF;html=1;whiteSpace=wrap;fillColor=#ffffff;fontColor=#000000;verticalAlign=bottom;align=left;spacing=20;fontSize=14;" vertex="1" parent="1">
          <mxGeometry x="-167.5" y="1100" width="250" height="290" as="geometry" />
        </mxCell>
        <mxCell id="tjEL6Pp3iGFSAv2E55cC-81" value="Image cap" style="html=1;shadow=0;dashed=0;shape=mxgraph.bootstrap.topButton;rSize=5;perimeter=none;whiteSpace=wrap;fillColor=#868E96;strokeColor=#DFDFDF;fontColor=#DEE2E6;resizeWidth=1;fontSize=18;" vertex="1" parent="tjEL6Pp3iGFSAv2E55cC-80">
          <mxGeometry width="250" height="180" relative="1" as="geometry" />
        </mxCell>
        <mxCell id="tjEL6Pp3iGFSAv2E55cC-82" value="&lt;b&gt;&lt;font style=&quot;font-size: 18px&quot;&gt;Nombre Producto&lt;br&gt;&lt;br&gt;&amp;nbsp;$$$$$$$&lt;/font&gt;&lt;/b&gt;" style="html=1;shadow=0;dashed=0;shape=mxgraph.bootstrap.rrect;rSize=5;strokeColor=#DFDFDF;html=1;whiteSpace=wrap;fillColor=#ffffff;fontColor=#000000;verticalAlign=bottom;align=left;spacing=20;fontSize=14;" vertex="1" parent="1">
          <mxGeometry x="137.5" y="1100" width="250" height="290" as="geometry" />
        </mxCell>
        <mxCell id="tjEL6Pp3iGFSAv2E55cC-83" value="Image cap" style="html=1;shadow=0;dashed=0;shape=mxgraph.bootstrap.topButton;rSize=5;perimeter=none;whiteSpace=wrap;fillColor=#868E96;strokeColor=#DFDFDF;fontColor=#DEE2E6;resizeWidth=1;fontSize=18;" vertex="1" parent="tjEL6Pp3iGFSAv2E55cC-82">
          <mxGeometry width="250" height="180" relative="1" as="geometry" />
        </mxCell>
        <mxCell id="tjEL6Pp3iGFSAv2E55cC-84" value="&lt;b&gt;&lt;font style=&quot;font-size: 18px&quot;&gt;Nombre Producto&lt;br&gt;&lt;br&gt;&amp;nbsp;$$$$$$$&lt;/font&gt;&lt;/b&gt;" style="html=1;shadow=0;dashed=0;shape=mxgraph.bootstrap.rrect;rSize=5;strokeColor=#DFDFDF;html=1;whiteSpace=wrap;fillColor=#ffffff;fontColor=#000000;verticalAlign=bottom;align=left;spacing=20;fontSize=14;" vertex="1" parent="1">
          <mxGeometry x="447.5" y="1100" width="250" height="290" as="geometry" />
        </mxCell>
        <mxCell id="tjEL6Pp3iGFSAv2E55cC-85" value="Image cap" style="html=1;shadow=0;dashed=0;shape=mxgraph.bootstrap.topButton;rSize=5;perimeter=none;whiteSpace=wrap;fillColor=#868E96;strokeColor=#DFDFDF;fontColor=#DEE2E6;resizeWidth=1;fontSize=18;" vertex="1" parent="tjEL6Pp3iGFSAv2E55cC-84">
          <mxGeometry width="250" height="180" relative="1" as="geometry" />
        </mxCell>
        <mxCell id="tjEL6Pp3iGFSAv2E55cC-86" value="&lt;b&gt;&lt;font style=&quot;font-size: 18px&quot;&gt;Nombre Producto&lt;br&gt;&lt;br&gt;&amp;nbsp;$$$$$$$&lt;/font&gt;&lt;/b&gt;" style="html=1;shadow=0;dashed=0;shape=mxgraph.bootstrap.rrect;rSize=5;strokeColor=#DFDFDF;html=1;whiteSpace=wrap;fillColor=#ffffff;fontColor=#000000;verticalAlign=bottom;align=left;spacing=20;fontSize=14;" vertex="1" parent="1">
          <mxGeometry x="-167.5" y="1490" width="250" height="290" as="geometry" />
        </mxCell>
        <mxCell id="tjEL6Pp3iGFSAv2E55cC-87" value="Image cap" style="html=1;shadow=0;dashed=0;shape=mxgraph.bootstrap.topButton;rSize=5;perimeter=none;whiteSpace=wrap;fillColor=#868E96;strokeColor=#DFDFDF;fontColor=#DEE2E6;resizeWidth=1;fontSize=18;" vertex="1" parent="tjEL6Pp3iGFSAv2E55cC-86">
          <mxGeometry width="250" height="180" relative="1" as="geometry" />
        </mxCell>
        <mxCell id="tjEL6Pp3iGFSAv2E55cC-88" value="&lt;b&gt;&lt;font style=&quot;font-size: 18px&quot;&gt;Nombre Producto&lt;br&gt;&lt;br&gt;&amp;nbsp;$$$$$$$&lt;/font&gt;&lt;/b&gt;" style="html=1;shadow=0;dashed=0;shape=mxgraph.bootstrap.rrect;rSize=5;strokeColor=#DFDFDF;html=1;whiteSpace=wrap;fillColor=#ffffff;fontColor=#000000;verticalAlign=bottom;align=left;spacing=20;fontSize=14;" vertex="1" parent="1">
          <mxGeometry x="137.5" y="1490" width="250" height="290" as="geometry" />
        </mxCell>
        <mxCell id="tjEL6Pp3iGFSAv2E55cC-89" value="Image cap" style="html=1;shadow=0;dashed=0;shape=mxgraph.bootstrap.topButton;rSize=5;perimeter=none;whiteSpace=wrap;fillColor=#868E96;strokeColor=#DFDFDF;fontColor=#DEE2E6;resizeWidth=1;fontSize=18;" vertex="1" parent="tjEL6Pp3iGFSAv2E55cC-88">
          <mxGeometry width="250" height="180" relative="1" as="geometry" />
        </mxCell>
        <mxCell id="tjEL6Pp3iGFSAv2E55cC-90" value="&lt;b&gt;&lt;font style=&quot;font-size: 18px&quot;&gt;Nombre Producto&lt;br&gt;&lt;br&gt;&amp;nbsp;$$$$$$$&lt;/font&gt;&lt;/b&gt;" style="html=1;shadow=0;dashed=0;shape=mxgraph.bootstrap.rrect;rSize=5;strokeColor=#DFDFDF;html=1;whiteSpace=wrap;fillColor=#ffffff;fontColor=#000000;verticalAlign=bottom;align=left;spacing=20;fontSize=14;" vertex="1" parent="1">
          <mxGeometry x="447.5" y="1490" width="250" height="290" as="geometry" />
        </mxCell>
        <mxCell id="tjEL6Pp3iGFSAv2E55cC-91" value="Image cap" style="html=1;shadow=0;dashed=0;shape=mxgraph.bootstrap.topButton;rSize=5;perimeter=none;whiteSpace=wrap;fillColor=#868E96;strokeColor=#DFDFDF;fontColor=#DEE2E6;resizeWidth=1;fontSize=18;" vertex="1" parent="tjEL6Pp3iGFSAv2E55cC-90">
          <mxGeometry width="250" height="180" relative="1" as="geometry" />
        </mxCell>
      </root>
    </mxGraphModel>
  </diagram>
</mxfile>
